<svg width="37" height="31" viewBox="0 0 37 31" fill="none" xmlns="http://www.w3.org/2000/svg">
<path d="M3.78868 15.1154C3.78868 21.2692 9.16147 26.6538 15.0188 26.6538H32.7719C34.9599 26.6538 36.75 28.278 36.75 30.5H15.0901C7.05034 30.5 0 23.5769 0 15.1154C0 6.65385 6.47365 0.5 14.7735 0.5H36.75C36.75 2.72201 34.9826 4.34615 32.7946 4.34615H14.7758C8.66964 4.34615 3.78868 8.19231 3.78868 15.1154Z" fill="#FE0B5F"/>
<path d="M32.9613 15.5001C32.9613 17.0385 31.7343 18.5864 29.0017 18.5864H10.2477C10.2477 20.8084 12.0195 22.4232 14.2075 22.4232H29.0017C33.1856 22.4232 36.75 19.9232 36.75 15.5001C36.75 11.4616 32.9707 8.57701 29.0017 8.57701L14.1998 8.57701C12.0117 8.57701 10.2294 10.2012 10.2294 12.4232H29.0017C31.6283 12.4232 32.9613 13.9616 32.9613 15.5001Z" fill="#FE0B5F"/>
</svg>
