<svg width="131" height="33" viewBox="0 0 131 33" fill="none" xmlns="http://www.w3.org/2000/svg">
<path d="M3.78868 16.1154C3.78868 22.2692 9.16147 27.6538 15.0188 27.6538H32.7719C34.9599 27.6538 36.75 29.278 36.75 31.5H15.0901C7.05034 31.5 0 24.5769 0 16.1154C0 7.65385 6.47365 1.5 14.7735 1.5H36.75C36.75 3.72201 34.9826 5.34615 32.7946 5.34615H14.7758C8.66964 5.34615 3.78868 9.19231 3.78868 16.1154Z" fill="#FE0B5F"/>
<path d="M32.9613 16.5001C32.9613 18.0385 31.7343 19.5864 29.0017 19.5864H10.2477C10.2477 21.8084 12.0195 23.4232 14.2075 23.4232H29.0017C33.1856 23.4232 36.75 20.9232 36.75 16.5001C36.75 12.4616 32.9707 9.57701 29.0017 9.57701L14.1998 9.57701C12.0117 9.57701 10.2294 11.2012 10.2294 13.4232H29.0017C31.6283 13.4232 32.9613 14.9616 32.9613 16.5001Z" fill="#FE0B5F"/>
<path d="M125.681 24.4098C125.681 24.8164 126.259 25.1658 127.415 25.4581C127.821 25.547 128.19 25.655 128.52 25.7821C128.851 25.8964 129.181 26.068 129.511 26.2967C129.854 26.5127 130.121 26.8049 130.312 27.1734C130.502 27.5419 130.598 27.9676 130.598 28.4504C130.598 29.4288 130.229 30.1849 129.492 30.7185C128.755 31.2395 127.847 31.5 126.767 31.5C124.81 31.5 123.476 30.744 122.765 29.2319L124.899 28.0311C125.191 28.857 125.814 29.27 126.767 29.27C127.644 29.27 128.082 28.9968 128.082 28.4504C128.082 28.0438 127.504 27.6944 126.348 27.4021C125.916 27.2878 125.547 27.1734 125.242 27.0591C124.937 26.9447 124.607 26.7795 124.251 26.5635C123.896 26.3348 123.622 26.0489 123.432 25.7058C123.254 25.35 123.165 24.9371 123.165 24.4669C123.165 23.5267 123.508 22.7897 124.194 22.256C124.893 21.7096 125.757 21.4364 126.786 21.4364C127.561 21.4364 128.266 21.6143 128.901 21.9701C129.537 22.3132 130.039 22.8087 130.407 23.4568L128.311 24.6004C128.006 23.9523 127.497 23.6283 126.786 23.6283C126.468 23.6283 126.202 23.7046 125.986 23.857C125.782 23.9968 125.681 24.181 125.681 24.4098Z" fill="#FE0B5F"/>
<path d="M117.616 21.4364C118.671 21.4364 119.528 21.7859 120.189 22.4847C120.875 23.1963 121.218 24.162 121.218 25.3818V31.2332H118.76V25.6868C118.76 25.0642 118.588 24.5813 118.245 24.2382C117.915 23.8951 117.457 23.7236 116.873 23.7236C116.225 23.7236 115.71 23.9269 115.329 24.3335C114.961 24.7274 114.777 25.3119 114.777 26.087V31.2332H112.318V21.7033H114.777V22.7706C115.361 21.8812 116.308 21.4364 117.616 21.4364Z" fill="#FE0B5F"/>
<path d="M109.026 30.0515C108.06 31.0172 106.866 31.5 105.443 31.5C104.02 31.5 102.826 31.0172 101.86 30.0515C100.894 29.0858 100.412 27.8913 100.412 26.4682C100.412 25.0578 100.894 23.8697 101.86 22.904C102.838 21.9256 104.033 21.4364 105.443 21.4364C106.853 21.4364 108.047 21.9256 109.026 22.904C110.004 23.8824 110.493 25.0705 110.493 26.4682C110.493 27.8786 110.004 29.0731 109.026 30.0515ZM103.594 28.3551C104.09 28.8507 104.706 29.0985 105.443 29.0985C106.18 29.0985 106.796 28.8507 107.292 28.3551C107.787 27.8596 108.035 27.2306 108.035 26.4682C108.035 25.7058 107.787 25.0769 107.292 24.5813C106.796 24.0857 106.18 23.838 105.443 23.838C104.706 23.838 104.09 24.0857 103.594 24.5813C103.111 25.0896 102.87 25.7185 102.87 26.4682C102.87 27.2179 103.111 27.8469 103.594 28.3551Z" fill="#FE0B5F"/>
<path d="M98.5616 31.2332H96.1031V21.7034H98.5616V31.2332Z" fill="#FE0B5F"/>
<path d="M94.2744 21.7034V24.0668H92.1208V28.0312C92.1208 28.3616 92.2034 28.603 92.3686 28.7555C92.5337 28.9079 92.7751 28.9969 93.0928 29.0223C93.4104 29.035 93.8043 29.0287 94.2744 29.0032V31.2332C92.61 31.4238 91.422 31.2714 90.7105 30.7758C90.0117 30.2675 89.6623 29.3527 89.6623 28.0312V24.0668H88.0043V21.7034H89.6623V19.7783L92.1208 19.035V21.7034H94.2744Z" fill="#FE0B5F"/>
<path d="M84.0406 22.8278V21.7033H86.4991V31.2332H84.0406V30.1086C83.3037 31.0362 82.2682 31.5 80.9342 31.5C79.6636 31.5 78.571 31.0172 77.6562 30.0515C76.7541 29.0731 76.303 27.8786 76.303 26.4682C76.303 25.0705 76.7541 23.8824 77.6562 22.904C78.571 21.9256 79.6636 21.4364 80.9342 21.4364C82.2682 21.4364 83.3037 21.9002 84.0406 22.8278ZM79.5048 28.4123C80.0003 28.9079 80.6292 29.1556 81.3916 29.1556C82.1539 29.1556 82.7828 28.9079 83.2783 28.4123C83.7865 27.9041 84.0406 27.256 84.0406 26.4682C84.0406 25.6804 83.7865 25.0387 83.2783 24.5432C82.7828 24.0349 82.1539 23.7808 81.3916 23.7808C80.6292 23.7808 80.0003 24.0349 79.5048 24.5432C79.0093 25.0387 78.7615 25.6804 78.7615 26.4682C78.7615 27.256 79.0093 27.9041 79.5048 28.4123Z" fill="#FE0B5F"/>
<path d="M74.9662 27.4784H67.7813C68.0989 28.6728 68.9946 29.27 70.4684 29.27C71.4086 29.27 72.1201 28.9523 72.603 28.317L74.585 29.4606C73.6448 30.8202 72.2599 31.5 70.4303 31.5C68.8549 31.5 67.5907 31.0235 66.6378 30.0705C65.6849 29.1175 65.2084 27.9168 65.2084 26.4682C65.2084 25.0451 65.6785 23.8507 66.6187 22.885C67.5462 21.9193 68.7532 21.4364 70.2397 21.4364C71.65 21.4364 72.7999 21.9193 73.6893 22.885C74.604 23.8507 75.0614 25.0451 75.0614 26.4682C75.0614 26.7351 75.0297 27.0718 74.9662 27.4784ZM67.7431 25.5724H72.603C72.4632 24.9498 72.1773 24.4733 71.7453 24.1429C71.3261 23.8126 70.8242 23.6474 70.2397 23.6474C69.5791 23.6474 69.0327 23.8189 68.6008 24.162C68.1688 24.4924 67.8829 24.9625 67.7431 25.5724Z" fill="#FE0B5F"/>
<path d="M61.6276 21.7034V23.3425C61.8436 22.7453 62.212 22.2942 62.733 21.9892C63.2539 21.6716 63.851 21.5128 64.5244 21.5128V24.2574C63.7748 24.1557 63.1014 24.3082 62.5043 24.7148C61.9198 25.1087 61.6276 25.7631 61.6276 26.678V31.2332H59.1691V21.7034H61.6276Z" fill="#FE0B5F"/>
<path d="M51.6871 31.3857C49.6924 31.3857 48.0343 30.7186 46.713 29.3844C45.4043 28.063 44.75 26.4175 44.75 24.448C44.75 22.4657 45.4043 20.8202 46.713 19.5115C48.0343 18.1773 49.6924 17.5102 51.6871 17.5102C52.8942 17.5102 54.0059 17.7961 55.0223 18.3679C56.0515 18.927 56.8519 19.6894 57.4236 20.6551L55.1557 21.9702C54.8254 21.373 54.3553 20.9092 53.7454 20.5788C53.1356 20.2358 52.4495 20.0642 51.6871 20.0642C50.3912 20.0642 49.343 20.4708 48.5426 21.284C47.7548 22.11 47.361 23.1646 47.361 24.448C47.361 25.7186 47.7548 26.7669 48.5426 27.5928C49.343 28.406 50.3912 28.8126 51.6871 28.8126C52.4495 28.8126 53.1356 28.6475 53.7454 28.3171C54.368 27.974 54.8381 27.5102 55.1557 26.9257L57.4236 28.2409C56.8519 29.2065 56.0515 29.9753 55.0223 30.5471C54.0059 31.1062 52.8942 31.3857 51.6871 31.3857Z" fill="#FE0B5F"/>
<path d="M96.2271 19.5C96.5339 19.7941 96.8919 19.9411 97.301 19.9411C97.7229 19.9411 98.0809 19.7941 98.375 19.5C98.6818 19.1931 98.8353 18.8351 98.8353 18.4259C98.8353 18.0168 98.6818 17.6588 98.375 17.3519C98.0809 17.045 97.7229 16.8916 97.301 16.8916C96.8919 16.8916 96.5339 17.045 96.2271 17.3519C95.933 17.6588 95.786 18.0168 95.786 18.4259C95.786 18.8351 95.933 19.1931 96.2271 19.5Z" fill="#FE0B5F"/>
<path d="M98.5388 15.223H95.9819V5.31195H98.5388V15.223Z" fill="#FE0B5F"/>
<path d="M91.3748 5.31195V7.01665C91.5994 6.39556 91.9826 5.92643 92.5243 5.60928C93.0661 5.27891 93.6871 5.11372 94.3875 5.11372V7.96811C93.6079 7.8624 92.9075 8.02097 92.2865 8.44385C91.6787 8.85351 91.3748 9.53407 91.3748 10.4855V15.223H88.8179V5.31195H91.3748Z" fill="#FE0B5F"/>
<path d="M83.8434 6.48145V5.31194H86.4003V15.223H83.8434V14.0535C83.0771 15.0182 82.0001 15.5005 80.6127 15.5005C79.2914 15.5005 78.155 14.9984 77.2036 13.994C76.2654 12.9765 75.7964 11.7343 75.7964 10.2675C75.7964 8.81386 76.2654 7.57828 77.2036 6.56074C78.155 5.5432 79.2914 5.03443 80.6127 5.03443C82.0001 5.03443 83.0771 5.51677 83.8434 6.48145ZM79.1262 12.2893C79.6415 12.8047 80.2956 13.0624 81.0884 13.0624C81.8812 13.0624 82.5353 12.8047 83.0506 12.2893C83.5792 11.7608 83.8434 11.0868 83.8434 10.2675C83.8434 9.44817 83.5792 8.78082 83.0506 8.26544C82.5353 7.73685 81.8812 7.47256 81.0884 7.47256C80.2956 7.47256 79.6415 7.73685 79.1262 8.26544C78.6109 8.78082 78.3532 9.44817 78.3532 10.2675C78.3532 11.0868 78.6109 11.7608 79.1262 12.2893Z" fill="#FE0B5F"/>
<path d="M74.7581 7.01666L70.5562 12.8246H74.9563V15.223H67.1272V13.5183L71.3094 7.71043H67.3255V5.31195H74.7581V7.01666Z" fill="#FE0B5F"/>
<path d="M61.5128 5.03443C62.6096 5.03443 63.5015 5.39784 64.1886 6.12465C64.9021 6.86468 65.2589 7.869 65.2589 9.13762V15.223H62.702V9.45477C62.702 8.80725 62.5237 8.30509 62.1669 7.94829C61.8233 7.59149 61.3477 7.41309 60.7398 7.41309C60.0659 7.41309 59.5308 7.62453 59.1344 8.0474C58.7512 8.45706 58.5596 9.06494 58.5596 9.87104V15.223H56.0027V5.31194H58.5596V6.42198C59.1674 5.49695 60.1518 5.03443 61.5128 5.03443Z" fill="#FE0B5F"/>
<path d="M48.1849 9.55738V12.6353H53.8979V15.223H45.5123V1.5H53.8011V4.08777H48.1849V7.00882H53.3169V9.55738H48.1849Z" fill="#FE0B5F"/>
</svg>
